<svg width="512" height="512" viewBox="0 0 512 512" fill="none" xmlns="http://www.w3.org/2000/svg">
<rect width="512" height="512" fill="url(#paint0_linear_221_4)"/>
<path fill-rule="evenodd" clip-rule="evenodd" d="M256 45C249.503 45 244.236 50.2673 244.236 56.7647V233.518H244.236V233.838C244.236 240.335 238.968 245.602 232.471 245.602C225.973 245.602 220.706 240.335 220.706 233.838V233.518L220.706 105.102C220.706 98.605 215.439 93.3378 208.941 93.3378C202.444 93.3378 197.177 98.605 197.177 105.102V182.763V183.083C197.177 189.58 191.909 194.847 185.412 194.847C178.915 194.847 173.647 189.58 173.647 183.083V182.763L173.647 153.44C173.647 146.943 168.38 141.676 161.883 141.676C155.385 141.676 150.118 146.943 150.118 153.44V187.726L150.118 187.763V214.017L150.118 214.054V359.516C150.118 366.013 155.385 371.28 161.883 371.28C168.38 371.28 173.647 366.013 173.647 359.516L173.647 219.017L173.647 216.976C173.647 211.429 178.144 206.932 183.691 206.932H187.133C192.68 206.932 197.177 211.429 197.177 216.976V219.017V238.518V264.771V407.854C197.177 414.351 202.444 419.618 208.941 419.618C215.439 419.618 220.706 414.351 220.706 407.854L220.706 269.771V269.451C220.706 262.954 225.973 257.687 232.471 257.687C238.968 257.687 244.236 262.954 244.236 269.451V269.771H244.236V332.776V359.03V456.191C244.236 462.689 249.503 467.956 256 467.956C262.498 467.956 267.765 462.689 267.765 456.191V363.598C267.825 357.152 273.069 351.945 279.529 351.945C286.013 351.945 291.271 357.19 291.294 363.668V407.854C291.294 414.351 296.561 419.618 303.059 419.618C309.556 419.618 314.823 414.351 314.823 407.854V359.108L314.824 359.08C314.824 359.063 314.824 359.047 314.824 359.03V332.776C314.824 332.762 314.824 332.748 314.824 332.734C314.824 332.722 314.823 332.71 314.823 332.698L314.823 308.441V308.121C314.823 301.624 320.091 296.357 326.588 296.357C333.086 296.357 338.353 301.624 338.353 308.121V308.441L338.353 359.516C338.353 366.013 343.62 371.281 350.118 371.281C356.615 371.281 361.882 366.014 361.882 359.516V303.456L361.882 303.441V277.188L361.882 277.174L361.882 153.441C361.882 146.943 356.615 141.676 350.118 141.676C343.62 141.676 338.353 146.943 338.353 153.441L338.353 209.349V210.186C338.353 215.733 333.856 220.23 328.309 220.23H324.868C319.32 220.23 314.823 215.733 314.823 210.186V209.349L314.823 105.103C314.823 98.605 309.556 93.3378 303.059 93.3378C296.561 93.3378 291.294 98.605 291.294 105.103L291.294 328.138C291.271 334.616 286.013 339.861 279.529 339.861C273.069 339.861 267.825 334.654 267.765 328.208V56.7647C267.765 50.2672 262.498 45 256 45ZM314.823 272.188V245.602V243.562C314.823 238.014 319.32 233.517 324.868 233.517H328.309C333.856 233.517 338.353 238.014 338.353 243.562V245.602V272.188V272.508C338.353 279.005 333.086 284.272 326.588 284.272C320.091 284.272 314.823 279.005 314.823 272.508V272.188ZM444.235 274.605C450.733 274.605 456 269.338 456 262.84V250.116C456 243.619 450.733 238.351 444.235 238.351C437.738 238.351 432.471 243.619 432.471 250.116V262.84C432.471 269.338 437.738 274.605 444.235 274.605ZM67.7647 238.351C61.2672 238.351 56 243.619 56 250.116V262.84C56 269.338 61.2672 274.605 67.7647 274.605C74.2622 274.605 79.5294 269.338 79.5294 262.84V250.116C79.5294 243.619 74.2622 238.351 67.7647 238.351ZM114.824 190.013C108.326 190.013 103.059 195.281 103.059 201.778V311.178C103.059 317.675 108.326 322.942 114.824 322.942C121.321 322.942 126.588 317.675 126.588 311.178V201.778C126.588 195.281 121.321 190.013 114.824 190.013ZM408.941 311.178C408.941 317.676 403.674 322.943 397.176 322.943C390.679 322.943 385.412 317.676 385.412 311.178L385.412 201.778C385.412 195.281 390.679 190.014 397.176 190.014C403.674 190.014 408.941 195.281 408.941 201.778V311.178Z" fill="url(#paint1_linear_221_4)"/>
<path fill-rule="evenodd" clip-rule="evenodd" d="M256 45C249.503 45 244.236 50.2673 244.236 56.7647V233.518H244.236V233.838C244.236 240.335 238.968 245.602 232.471 245.602C225.973 245.602 220.706 240.335 220.706 233.838V233.518L220.706 105.102C220.706 98.605 215.439 93.3378 208.941 93.3378C202.444 93.3378 197.177 98.605 197.177 105.102V182.763V183.083C197.177 189.58 191.909 194.847 185.412 194.847C178.915 194.847 173.647 189.58 173.647 183.083V182.763L173.647 153.44C173.647 146.943 168.38 141.676 161.883 141.676C155.385 141.676 150.118 146.943 150.118 153.44V187.726L150.118 187.763V214.017L150.118 214.054V359.516C150.118 366.013 155.385 371.28 161.883 371.28C168.38 371.28 173.647 366.013 173.647 359.516L173.647 219.017L173.647 216.976C173.647 211.429 178.144 206.932 183.691 206.932H187.133C192.68 206.932 197.177 211.429 197.177 216.976V219.017V238.518V264.771V407.854C197.177 414.351 202.444 419.618 208.941 419.618C215.439 419.618 220.706 414.351 220.706 407.854L220.706 269.771V269.451C220.706 262.954 225.973 257.687 232.471 257.687C238.968 257.687 244.236 262.954 244.236 269.451V269.771H244.236V332.776V359.03V456.191C244.236 462.689 249.503 467.956 256 467.956C262.498 467.956 267.765 462.689 267.765 456.191V363.598C267.825 357.152 273.069 351.945 279.529 351.945C286.013 351.945 291.271 357.19 291.294 363.668V407.854C291.294 414.351 296.561 419.618 303.059 419.618C309.556 419.618 314.823 414.351 314.823 407.854V359.108L314.824 359.08C314.824 359.063 314.824 359.047 314.824 359.03V332.776C314.824 332.762 314.824 332.748 314.824 332.734C314.824 332.722 314.823 332.71 314.823 332.698L314.823 308.441V308.121C314.823 301.624 320.091 296.357 326.588 296.357C333.086 296.357 338.353 301.624 338.353 308.121V308.441L338.353 359.516C338.353 366.013 343.62 371.281 350.118 371.281C356.615 371.281 361.882 366.014 361.882 359.516V303.456L361.882 303.441V277.188L361.882 277.174L361.882 153.441C361.882 146.943 356.615 141.676 350.118 141.676C343.62 141.676 338.353 146.943 338.353 153.441L338.353 209.349V210.186C338.353 215.733 333.856 220.23 328.309 220.23H324.868C319.32 220.23 314.823 215.733 314.823 210.186V209.349L314.823 105.103C314.823 98.605 309.556 93.3378 303.059 93.3378C296.561 93.3378 291.294 98.605 291.294 105.103L291.294 328.138C291.271 334.616 286.013 339.861 279.529 339.861C273.069 339.861 267.825 334.654 267.765 328.208V56.7647C267.765 50.2672 262.498 45 256 45ZM314.823 272.188V245.602V243.562C314.823 238.014 319.32 233.517 324.868 233.517H328.309C333.856 233.517 338.353 238.014 338.353 243.562V245.602V272.188V272.508C338.353 279.005 333.086 284.272 326.588 284.272C320.091 284.272 314.823 279.005 314.823 272.508V272.188ZM444.235 274.605C450.733 274.605 456 269.338 456 262.84V250.116C456 243.619 450.733 238.351 444.235 238.351C437.738 238.351 432.471 243.619 432.471 250.116V262.84C432.471 269.338 437.738 274.605 444.235 274.605ZM67.7647 238.351C61.2672 238.351 56 243.619 56 250.116V262.84C56 269.338 61.2672 274.605 67.7647 274.605C74.2622 274.605 79.5294 269.338 79.5294 262.84V250.116C79.5294 243.619 74.2622 238.351 67.7647 238.351ZM114.824 190.013C108.326 190.013 103.059 195.281 103.059 201.778V311.178C103.059 317.675 108.326 322.942 114.824 322.942C121.321 322.942 126.588 317.675 126.588 311.178V201.778C126.588 195.281 121.321 190.013 114.824 190.013ZM408.941 311.178C408.941 317.676 403.674 322.943 397.176 322.943C390.679 322.943 385.412 317.676 385.412 311.178L385.412 201.778C385.412 195.281 390.679 190.014 397.176 190.014C403.674 190.014 408.941 195.281 408.941 201.778V311.178Z" fill="url(#paint2_linear_221_4)"/>
<defs>
<linearGradient id="paint0_linear_221_4" x1="256" y1="0" x2="256" y2="512" gradientUnits="userSpaceOnUse">
<stop/>
<stop offset="0.822917" stop-color="#262626"/>
<stop offset="0.869792" stop-color="#262626"/>
<stop offset="0.953125" stop-color="#262626"/>
</linearGradient>
<linearGradient id="paint1_linear_221_4" x1="256" y1="45" x2="256" y2="467.956" gradientUnits="userSpaceOnUse">
<stop stop-color="white"/>
<stop offset="1" stop-color="white" stop-opacity="0"/>
</linearGradient>
<linearGradient id="paint2_linear_221_4" x1="256" y1="45" x2="256" y2="467.956" gradientUnits="userSpaceOnUse">
<stop stop-color="white"/>
<stop offset="1" stop-color="white" stop-opacity="0"/>
</linearGradient>
</defs>
</svg>
